# xmcd CD database file
#
# Track frame offsets:
#	150
#	900
#	1650
#	2400
#	3150
#	3900
#	4650
#	5400
#	6150
#	6900
#	7650
#	8400
#	9150
#	9900
#	279939
#
# Disc length: 4440 seconds
#
# Revision: 1
# Processed by: cddbd v1.5.1PL0 Copyright (c) Steve Scherf et al.
# Submitted via: CDex 1.51
#
DISCID=6211560f
DTITLE=Miki Kouda - affection
DYEAR=2002
DGENRE=Pop
TTITLE0=atomic energy
TTITLE1=Trust Your Love
TTITLE2=Go Together
TTITLE3=Your Song
TTITLE4=feel me
TTITLE5=COLOR OF SOUL
TTITLE6=Best Friend Of Mine
TTITLE7=My Dream
TTITLE8=So Into You
TTITLE9=Till Morning Comes
TTITLE10=come back
TTITLE11=TAKE BACK
TTITLE12=Can't Lose
TTITLE13=walk
TTITLE14=fumei
EXTD=YEAR: 2002
EXTT0=
EXTT1=
EXTT2=
EXTT3=
EXTT4=
EXTT5=
EXTT6=
EXTT7=
EXTT8=
EXTT9=
EXTT10=
EXTT11=
EXTT12=
EXTT13=
EXTT14=
PLAYORDER=
